PathFileType	4	(X/Y/Z)	/Users/itak/Documents/Research/Walk-IL/dataset/trc/00507_00183.trc
DataRate	CameraRate	NumFrames	NumMarkers	Units	OrigDataRate	OrigDataStartFrame	OrigNumFrames
100.000000	100.000000	4	53	mm	100.000000	298	341
Frame#	Time	RPSI			LPSI			L3			STRN			T10			C7			CLAV			RBAK			LBAK			LSHO			LUPA			LAEL			LAOL			LWTS			LWPS			LFRA			LIFD			LHPS			LHTS			RSHO			RUPA			RAEL			RAOL			RWTS			RWPS			RFRA			RIFD			RHTS			RHPS			RBHD			LFHD			RFHD			LBHD			LHIP			RASI			LASI			LKNE			LTHI			LANK			LTIP			LTOE			LMT1			LMT5			LHEE			RKNE			RTHI			RANK			RTIP			RTOE			RMT1			RMT5			RHEE			RHIP			
		X1	Y1	Z1	X2	Y2	Z2	X3	Y3	Z3	X4	Y4	Z4	X5	Y5	Z5	X6	Y6	Z6	X7	Y7	Z7	X8	Y8	Z8	X9	Y9	Z9	X10	Y10	Z10	X11	Y11	Z11	X12	Y12	Z12	X13	Y13	Z13	X14	Y14	Z14	X15	Y15	Z15	X16	Y16	Z16	X17	Y17	Z17	X18	Y18	Z18	X19	Y19	Z19	X20	Y20	Z20	X21	Y21	Z21	X22	Y22	Z22	X23	Y23	Z23	X24	Y24	Z24	X25	Y25	Z25	X26	Y26	Z26	X27	Y27	Z27	X28	Y28	Z28	X29	Y29	Z29	X30	Y30	Z30	X31	Y31	Z31	X32	Y32	Z32	X33	Y33	Z33	X34	Y34	Z34	X35	Y35	Z35	X36	Y36	Z36	X37	Y37	Z37	X38	Y38	Z38	X39	Y39	Z39	X40	Y40	Z40	X41	Y41	Z41	X42	Y42	Z42	X43	Y43	Z43	X44	Y44	Z44	X45	Y45	Z45	X46	Y46	Z46	X47	Y47	Z47	X48	Y48	Z48	X49	Y49	Z49	X50	Y50	Z50	X51	Y51	Z51	X52	Y52	Z52	X53	Y53	Z53	

299	2.98	1364.664184570312	943.9091186523438	1177.965576171875	1431.03857421875	942.0720825195312	1074.08740234375	1399.593383789062	1018.740783691406	1119.901733398438	1586.928100585938	1189.531127929688	1218.142700195312	1386.014892578125	1121.17236328125	1114.016357421875	1418.970825195312	1353.61474609375	1124.124267578125	1554.106079101562	1283.039184570312	1196.781860351562	1337.04638671875	1233.379638671875	1183.137451171875	1435.154663085938	1295.64453125	1040.249389648438	1551.266235351562	1340.903076171875	1012.952758789062	1546.980712890625	1216.14306640625	951.2716064453125	1534.62890625	1027.088989257812	925.1493530273438	1444.970336914062	1006.279296875	967.090576171875	1687.820190429688	929.0551147460938	1014.092834472656	1651.38037109375	852.5655517578125	973.0953979492188	1579.6328125	976.7001342773438	938.9134521484375	1769.783813476562	803.8372802734375	1057.19482421875	1698.947631835938	823.7828369140625	985.33056640625	1741.205078125	868.2297973632812	1009.225708007812	1396.630859375	1355.329956054688	1279.475219726562	1350.976318359375	1293.025268554688	1321.669311523438	1317.596801757812	1030.400512695312	1375.9111328125	1291.0087890625	1007.1455078125	1320.154663085938	1468.77587890625	889.223876953125	1436.849365234375	1392.506469726562	842.1597900390625	1451.454467773438	1323.950927734375	980.7939453125	1391.980224609375	1518.117065429688	742.7052612304688	1481.126220703125	1499.017333984375	811.9075317382812	1488.632080078125	1432.950927734375	784.6067504882812	1480.068725585938	1399.404418945312	1501.2587890625	1193.857055664062	1577.0869140625	1586.01708984375	1156.1552734375	1496.381958007812	1579.021606445312	1253.3974609375	1489.834838867188	1502.680297851562	1063.55419921875	1598.51318359375	876.8218383789062	1023.948425292969	1506.034912109375	904.6943969726562	1340.30078125	1633.65625	920.881103515625	1134.260986328125	1662.896728515625	464.4796752929688	1099.398559570312	1656.42578125	623.414306640625	1073.961669921875	1528.991333007812	54.31587219238281	980.2669677734375	1625.632934570312	324.748046875	1054.902709960938	1660.06103515625	25.07364463806152	1134.671997070312	1579.404907226562	34.72103500366211	1121.286865234375	1624.791870117188	33.37726974487305	1029.6474609375	1457.413452148438	53.0843505859375	1007.062805175781	1457.575073242188	463.4241943359375	1308.994873046875	1428.383666992188	728.3634643554688	1367.19482421875	1403.224365234375	37.57771301269531	1216.500244140625	1471.875244140625	317.5102844238281	1284.194946289062	1596.150634765625	26.74118804931641	1285.053588867188	1558.245727539062	30.52390098571777	1218.234252929688	1491.569091796875	31.50407218933105	1287.783081054688	1380.380859375	26.72628021240234	1151.158203125	1420.818359375	841.0092163085938	1360.1787109375	
300	2.99	1366.328125	944.0418090820312	1178.913330078125	1432.72900390625	942.2042236328125	1075.27685546875	1401.45751953125	1018.590454101562	1121.073974609375	1588.648559570312	1189.278198242188	1219.283325195312	1387.810302734375	1120.9736328125	1115.070556640625	1420.742309570312	1353.497680664062	1125.266235351562	1555.878295898438	1282.768798828125	1197.915161132812	1338.8427734375	1233.165771484375	1184.155639648438	1436.987915039062	1295.45361328125	1041.378173828125	1553.12158203125	1340.76513671875	1014.103881835938	1548.923828125	1215.871459960938	952.5652465820312	1536.485961914062	1026.724731445312	926.5692749023438	1446.82666015625	1006.078125	968.5813598632812	1689.387939453125	928.152587890625	1015.2333984375	1652.782470703125	851.825927734375	974.1478271484375	1581.32763671875	976.1868286132812	940.2448120117188	1770.9375	802.6730346679688	1058.30712890625	1700.269653320312	822.8715209960938	986.4381103515625	1742.632690429688	867.1842651367188	1010.345092773438	1398.383666992188	1355.073364257812	1280.596069335938	1352.755126953125	1292.638671875	1322.775390625	1320.3779296875	1029.975708007812	1376.83349609375	1293.456420898438	1006.536560058594	1321.165161132812	1472.907836914062	890.1232299804688	1436.88330078125	1397.028686523438	843.1087036132812	1453.154663085938	1327.071411132812	980.6676025390625	1392.966918945312	1523.247192382812	744.0156860351562	1481.490356445312	1504.176025390625	813.27197265625	1488.772216796875	1438.129272460938	786.0044555664062	1481.729370117188	1400.943481445312	1500.84765625	1195.058227539062	1578.4482421875	1586.050903320312	1157.470703125	1497.840454101562	1578.646484375	1254.660522460938	1491.287719726562	1502.701171875	1064.769775390625	1600.313110351562	876.935791015625	1025.339721679688	1507.81689453125	904.5859985351562	1341.715576171875	1635.440185546875	920.4249267578125	1135.417358398438	1662.022705078125	463.8089904785156	1098.75439453125	1656.637451171875	622.8939208984375	1074.014404296875	1528.392333984375	53.1836051940918	980.3602294921875	1624.692016601562	323.8131408691406	1054.331665039062	1659.916015625	24.95525550842285	1134.795776367188	1579.137451171875	34.37692260742188	1121.224487304688	1624.475219726562	33.1287727355957	1029.682250976562	1456.755249023438	51.57512664794922	1007.287475585938	1457.654296875	463.1792297363281	1309.29345703125	1429.484008789062	728.2546997070312	1368.291259765625	1403.185424804688	37.42879486083984	1216.376953125	1471.767333984375	317.2011108398438	1284.152709960938	1596.147338867188	26.74654006958008	1285.040771484375	1558.243896484375	30.5007152557373	1218.216552734375	1491.533935546875	31.5030403137207	1287.63671875	1380.396850585938	26.44521903991699	1151.039306640625	1423.165405273438	840.9205322265625	1361.972412109375	
301	3	1367.890991210938	944.2138061523438	1179.789428710938	1434.537109375	942.2452392578125	1076.426391601562	1403.176391601562	1018.507934570312	1122.192993164062	1590.32275390625	1189.07177734375	1220.316772460938	1389.526489257812	1120.810546875	1116.091918945312	1422.430908203125	1353.40478515625	1126.342163085938	1557.592041015625	1282.552001953125	1198.943725585938	1340.57763671875	1232.9853515625	1185.155029296875	1438.716186523438	1295.299926757812	1042.415161132812	1554.856567382812	1340.660766601562	1015.153381347656	1550.832275390625	1215.618896484375	953.7734375	1538.526123046875	1026.305786132812	927.9697265625	1448.807495117188	1005.788330078125	970.0254516601562	1691.078979492188	927.2740478515625	1016.529052734375	1654.361083984375	851.1014404296875	975.3060913085938	1583.21630859375	975.6322631835938	941.6165771484375	1772.230224609375	801.5465087890625	1059.596313476562	1701.756225585938	821.9923706054688	987.6765747070312	1744.198486328125	866.1821899414062	1011.648986816406	1400.127807617188	1354.877197265625	1281.6845703125	1354.5283203125	1292.308349609375	1323.844116210938	1323.107543945312	1029.646850585938	1377.71142578125	1295.835083007812	1006.012939453125	1322.119750976562	1476.8037109375	890.7779541015625	1436.649047851562	1401.299438476562	844.031982421875	1454.678466796875	1330.10693359375	980.5903930664062	1393.898071289062	1527.94287109375	745.0857543945312	1481.676025390625	1509.011108398438	814.4498291015625	1488.729858398438	1442.953002929688	787.2935180664062	1483.187866210938	1402.42431640625	1500.473999023438	1196.185791015625	1579.748291015625	1586.124145507812	1158.764282226562	1499.224853515625	1578.292602539062	1255.901977539062	1492.6845703125	1502.765380859375	1065.945068359375	1601.960693359375	877.0546875	1026.536499023438	1509.595703125	904.5113525390625	1343.039306640625	1637.131225585938	920.0261840820312	1136.432373046875	1661.111450195312	463.2138977050781	1098.103271484375	1656.8134765625	622.4508666992188	1074.034912109375	1527.848266601562	52.08012390136719	980.4172973632812	1623.75537109375	322.9677429199219	1053.733764648438	1659.800048828125	24.88054275512695	1134.8974609375	1578.867919921875	34.04179382324219	1121.169921875	1624.189819335938	32.89793014526367	1029.733276367188	1456.147583007812	50.18976211547852	1007.45263671875	1457.736938476562	462.9491577148438	1309.511352539062	1430.5810546875	728.1796875	1369.296630859375	1403.131469726562	37.28697967529297	1216.263305664062	1471.655151367188	316.9522094726562	1284.091430664062	1596.14013671875	26.75627708435059	1285.0244140625	1558.243408203125	30.48101234436035	1218.199462890625	1491.501220703125	31.51325988769531	1287.5029296875	1380.403686523438	26.17757415771484	1150.915893554688	1425.509155273438	840.865478515625	1363.674926757812	
302	3.01	1369.371948242188	944.4253540039062	1180.62890625	1436.455932617188	942.2256469726562	1077.511840820312	1404.739990234375	1018.493408203125	1123.256103515625	1591.955444335938	1188.9228515625	1221.241088867188	1391.167846679688	1120.696899414062	1117.09619140625	1424.037353515625	1353.339111328125	1127.352661132812	1559.250610351562	1282.397094726562	1199.867553710938	1342.24609375	1232.849365234375	1186.1416015625	1440.33935546875	1295.193725585938	1043.36083984375	1556.4697265625	1340.593994140625	1016.098022460938	1552.695068359375	1215.398315429688	954.8935546875	1540.720703125	1025.848388671875	929.345703125	1450.885131835938	1005.442565917969	971.4158935546875	1692.878662109375	926.42919921875	1017.959533691406	1656.08984375	850.398193359375	976.559814453125	1585.273803710938	975.051513671875	943.0206909179688	1773.648559570312	800.470458984375	1061.040649414062	1703.380004882812	821.1515502929688	989.0338745117188	1745.881591796875	865.2318115234375	1013.115356445312	1401.857788085938	1354.740966796875	1282.73193359375	1356.29345703125	1292.04296875	1324.869140625	1325.755737304688	1029.418212890625	1378.528564453125	1298.129638671875	1005.591918945312	1323.016723632812	1480.467407226562	891.234619140625	1436.188232421875	1405.317504882812	844.9326782226562	1456.02587890625	1333.033203125	980.5596313476562	1394.75341796875	1532.215576171875	745.9424438476562	1481.69482421875	1513.510620117188	815.4276123046875	1488.498779296875	1447.406494140625	788.4520263671875	1484.41357421875	1403.845825195312	1500.1396484375	1197.234497070312	1580.9921875	1586.239868164062	1160.026977539062	1500.53759765625	1577.978637695312	1257.137573242188	1494.030517578125	1502.877685546875	1067.077026367188	1603.453491210938	877.1820678710938	1027.546020507812	1511.371337890625	904.4508056640625	1344.243286132812	1638.736206054688	919.6934204101562	1137.31103515625	1660.157470703125	462.6955261230469	1097.435546875	1656.95751953125	622.08837890625	1074.012939453125	1527.360595703125	51.0155029296875	980.4716186523438	1622.824584960938	322.2192687988281	1053.115478515625	1659.712158203125	24.83476829528809	1134.978271484375	1578.60009765625	33.70754241943359	1121.138549804688	1623.927124023438	32.69041442871094	1029.805419921875	1455.599975585938	48.94006729125977	1007.537841796875	1457.81005859375	462.7356567382812	1309.694091796875	1431.67529296875	728.1189575195312	1370.182495117188	1403.0625	37.16109085083008	1216.175170898438	1471.517333984375	316.7660827636719	1284.0224609375	1596.127563476562	26.77114868164062	1285.00439453125	1558.24267578125	30.46585273742676	1218.1826171875	1491.469848632812	31.53630638122559	1287.388061523438	1380.401733398438	25.93004035949707	1150.796997070312	1427.849731445312	840.8245239257812	1365.257690429688	
